<svg xmlns="http://www.w3.org/2000/svg" xmlns:xlink="http://www.w3.org/1999/xlink" viewBox="0,0,256,256" width="100px" height="100px"><g transform="translate(-21.76,-21.76) scale(1.17,1.17)"><g fill="none" fill-rule="nonzero" stroke="none" stroke-width="none" stroke-linecap="butt" stroke-linejoin="none" stroke-miterlimit="10" stroke-dasharray="" stroke-dashoffset="0" font-family="none" font-weight="none" font-size="none" text-anchor="none" style="mix-blend-mode: normal"><path transform="scale(2.56,2.56)" d="M71.986,88.109c-14.657,1.189 -29.314,1.189 -43.971,0c-3.666,-0.297 -6.521,-3.286 -6.707,-6.96c-1.036,-20.432 -1.036,-40.864 0,-61.296c0.186,-3.678 3.049,-6.665 6.72,-6.962c9.872,-0.8 19.745,-1.061 29.617,-0.783c0.83,0.023 1.642,0.177 2.411,0.446c0.01448,0.00507 0.03124,0.01258 0.05022,0.02247c1.18559,0.42392 2.26878,1.12111 3.15578,2.04753c4.461,4.658 9.014,9.339 13.596,13.935c0.80083,0.80278 1.41327,1.75684 1.82061,2.79351c0.01866,0.03058 0.03186,0.05581 0.03939,0.07549c0.322,0.843 0.504,1.741 0.529,2.66c0.426,15.686 0.241,31.372 -0.554,47.059c-0.187,3.674 -3.04,6.664 -6.707,6.962z" id="strokeMainSVG" fill="#000000" stroke="#000000" stroke-width="2" stroke-linejoin="round"></path><g transform="scale(2.56,2.56)" stroke="none" stroke-width="1" stroke-linejoin="miter"><path d="M71.986,88.109c-14.657,1.189 -29.314,1.189 -43.971,0c-3.666,-0.297 -6.521,-3.286 -6.707,-6.96c-1.036,-20.432 -1.036,-40.864 0,-61.296c0.186,-3.678 3.049,-6.665 6.72,-6.962c9.872,-0.8 19.745,-1.061 29.617,-0.783c0.83,0.023 1.642,0.177 2.411,0.446c1.206,0.422 18.254,17.808 18.662,18.874c0.322,0.843 0.504,1.741 0.529,2.66c0.426,15.686 0.241,31.372 -0.554,47.059c-0.187,3.674 -3.04,6.664 -6.707,6.962z" fill="#ff9200"></path><path d="M50,53.947c2.567,0 4.683,-1.935 4.967,-4.426c0.035,-0.303 -0.186,-0.574 -0.491,-0.574c-1.726,0 -7.224,0 -8.952,0c-0.305,0 -0.527,0.271 -0.492,0.574c0.285,2.491 2.401,4.426 4.968,4.426z" fill="#000000"></path><circle cx="37.5" cy="43.447" r="5.5" fill="#ffffff"></circle><circle cx="37.5" cy="43.447" r="2.5" fill="#000000"></circle><circle cx="62.5" cy="43.447" r="5.5" fill="#ffffff"></circle><circle cx="62.5" cy="43.447" r="2.5" fill="#000000"></circle><path d="M68.634,31.425l10.075,0.006c-0.407,-1.067 -1.03,-2.049 -1.851,-2.872c-4.582,-4.596 -9.135,-9.277 -13.596,-13.935c-0.9,-0.94 -2.002,-1.644 -3.208,-2.066l0.022,10.324c0.011,4.719 3.838,8.54 8.558,8.543z" fill="#ffffff"></path><path d="M71.761,63.881h-43.522c-0.276,0 -0.5,-0.224 -0.5,-0.5c0,-0.276 0.224,-0.5 0.5,-0.5h43.521c0.276,0 0.5,0.224 0.5,0.5c0,0.276 -0.223,0.5 -0.499,0.5z" fill="#ffffff"></path><path d="M61.195,70.924h-32.956c-0.276,0 -0.5,-0.224 -0.5,-0.5c0,-0.276 0.224,-0.5 0.5,-0.5h32.956c0.276,0 0.5,0.224 0.5,0.5c0,0.276 -0.223,0.5 -0.5,0.5z" fill="#ffffff"></path><path d="M71.761,77.968h-43.522c-0.276,0 -0.5,-0.224 -0.5,-0.5c0,-0.276 0.224,-0.5 0.5,-0.5h43.521c0.276,0 0.5,0.224 0.5,0.5c0,0.276 -0.223,0.5 -0.499,0.5z" fill="#ffffff"></path></g></g></g></svg>